<svg xmlns="http://www.w3.org/2000/svg" width="50" height="47" viewBox="0 0 50 47" fill="none">
  <path d="M18.2997 43.0831C14.7888 41.6103 11.889 39.3151 9.98291 36.2425" stroke="#1C274C" stroke-width="3.75" stroke-linecap="round"/>
  <path d="M30.8857 4.28084C34.3793 3.34646 37.986 4.23599 40.5034 6.65295" stroke="#1C274C" stroke-width="3.75" stroke-linecap="round"/>
  <path d="M21.7011 18.6535C22.1359 19.3542 23.0926 19.591 23.838 19.1823C24.5834 18.7737 24.8353 17.8744 24.4007 17.1737L21.7011 18.6535ZM15.7044 23.7599C16.1391 24.4606 17.0958 24.6973 17.8412 24.2886C18.5867 23.8801 18.8386 22.9808 18.4039 22.28L15.7044 23.7599ZM33.4324 19.8753L34.2078 21.1506C34.5696 20.9561 34.8338 20.634 34.9417 20.2556C35.0496 19.8771 34.9921 19.4739 34.7821 19.1355L33.4324 19.8753ZM35.4486 11.268C35.8832 11.9688 36.8399 12.2056 37.5855 11.7969C38.3309 11.3883 38.5828 10.489 38.148 9.78827L35.4486 11.268ZM28.7167 29.9625C29.1515 30.6632 30.1082 30.8999 30.8536 30.4914C31.5992 30.0827 31.8511 29.1835 31.4163 28.4828L28.7167 29.9625ZM42.3896 16.6255C41.9549 15.9248 40.9982 15.688 40.2528 16.0966C39.5074 16.5052 39.2555 17.4045 39.6901 18.1053L42.3896 16.6255ZM18.7228 39.5197C19.4801 39.9087 20.4294 39.6468 20.8432 38.935C21.2569 38.2231 20.9786 37.3309 20.2212 36.942L18.7228 39.5197ZM28.9351 38.2762C28.0817 38.3965 27.4936 39.1443 27.6215 39.9465C27.7494 40.7488 28.5449 41.3016 29.3984 41.1814L28.9351 38.2762ZM9.13079 17.6597C10.4509 16.9504 11.7505 17.3864 12.1965 18.1053L14.896 16.6255C13.4046 14.2215 10.0563 13.7791 7.58019 15.1093L9.13079 17.6597ZM7.58019 15.1093C5.09925 16.4421 3.82365 19.3814 5.32279 21.798L8.02231 20.3183C7.58413 19.6119 7.81546 18.3663 9.13079 17.6597L7.58019 15.1093ZM14.6854 7.34441L16.4393 10.1717L19.1389 8.69192L17.3849 5.86465L14.6854 7.34441ZM16.4393 10.1717L21.7011 18.6535L24.4007 17.1737L19.1389 8.69192L16.4393 10.1717ZM18.4039 22.28L14.896 16.6255L12.1965 18.1053L15.7044 23.7599L18.4039 22.28ZM14.896 16.6255L10.5112 9.55737L7.81169 11.0371L12.1965 18.1053L14.896 16.6255ZM11.6197 6.89881C12.9398 6.1896 14.2394 6.62557 14.6854 7.34441L17.3849 5.86465C15.8935 3.4606 12.5452 3.01824 10.0691 4.34843L11.6197 6.89881ZM10.0691 4.34843C7.58815 5.68126 6.31254 8.62056 7.81169 11.0371L10.5112 9.55737C10.073 8.85102 10.3044 7.60544 11.6197 6.89881L10.0691 4.34843ZM23.313 6.47896L28.5749 14.9607L31.2744 13.481L26.0126 4.99921L23.313 6.47896ZM28.5749 14.9607L32.0828 20.6152L34.7821 19.1355L31.2744 13.481L28.5749 14.9607ZM20.2473 6.03336C21.5676 5.32415 22.8671 5.76012 23.313 6.47896L26.0126 4.99921C24.5211 2.59516 21.1728 2.15279 18.6967 3.48299L20.2473 6.03336ZM18.6967 3.48299C16.2158 4.81581 14.9402 7.75511 16.4393 10.1717L19.1389 8.69192C18.7007 7.98557 18.932 6.73999 20.2473 6.03336L18.6967 3.48299ZM32.3828 10.8224C33.703 10.1132 35.0026 10.5492 35.4486 11.268L38.148 9.78827C36.6567 7.38424 33.3084 6.94186 30.8321 8.27207L32.3828 10.8224ZM30.8321 8.27207C28.3513 9.60488 27.0757 12.5442 28.5749 14.9607L31.2744 13.481C30.8361 12.7746 31.0676 11.5291 32.3828 10.8224L30.8321 8.27207ZM5.32279 21.798L13.2155 34.5207L15.915 33.0408L8.02231 20.3183L5.32279 21.798ZM40.7103 19.7498C44.0544 25.1405 41.5628 32.6634 34.553 36.4291L36.1036 38.9796C44.279 34.5877 47.8151 25.371 43.4099 18.2701L40.7103 19.7498ZM31.4163 28.4828C30.0094 26.2148 30.9942 22.8769 34.2078 21.1506L32.6571 18.6002C28.2782 20.9528 26.249 25.9845 28.7167 29.9625L31.4163 28.4828ZM39.6901 18.1053L40.7103 19.7498L43.4099 18.2701L42.3896 16.6255L39.6901 18.1053ZM20.2212 36.942C18.4449 36.0296 16.9548 34.7169 15.915 33.0408L13.2155 34.5207C14.5593 36.6868 16.4786 38.3671 18.7228 39.5197L20.2212 36.942ZM34.553 36.4291C32.7413 37.4024 30.8299 38.0093 28.9351 38.2762L29.3984 41.1814C31.6746 40.8606 33.9551 40.1339 36.1036 38.9796L34.553 36.4291Z" fill="#1C274C"/>
</svg>