<svg xmlns="http://www.w3.org/2000/svg" width="37" height="36" viewBox="0 0 37 36" fill="none">
  <path fill-rule="evenodd" clip-rule="evenodd" d="M31.8378 0.124278L3.14536 7.10351C-0.668157 8.03113 -1.1442 13.1169 2.43433 14.6996L11.2746 18.6093C13.087 19.4108 15.049 19.7004 16.9556 19.5028C16.7525 21.3578 17.0499 23.2667 17.8738 25.0301L21.8922 33.6314C23.5189 37.1133 28.7459 36.65 29.6992 32.9397L36.8722 5.0227C37.6325 2.06438 34.8783 -0.615298 31.8378 0.124278ZM12.8055 15.3322C14.5389 16.099 16.4791 16.1575 18.2164 15.5579C18.8731 15.3313 19.5007 15.0106 20.0773 14.5986C20.1576 14.5412 20.237 14.482 20.3152 14.4212L24.549 11.1256C25.2229 10.6011 26.1045 11.4589 25.5653 12.1146L22.1783 16.2339C22.1156 16.3101 22.0549 16.3873 21.9959 16.4654C21.5725 17.0264 21.2429 17.6371 21.01 18.276C20.3936 19.9664 20.4539 21.854 21.2418 23.5406L25.2601 32.1419C25.4373 32.5209 26.0063 32.4705 26.1101 32.0667L33.2832 4.14967C33.3659 3.82761 33.0661 3.5359 32.7351 3.61642L4.04266 10.5957C3.62749 10.6966 3.57568 11.2503 3.96525 11.4226L12.8055 15.3322Z" fill="#0F1729"/>
</svg>